<svg
      width="41"
      height="41"
      viewBox="0 0 41 41"
      fill="none"
      xmlns="http://www.w3.org/2000/svg"
    >
      <path
        d="M33.391 30.6715C33.7521 31.0326 33.9549 31.5223 33.9549 32.0329C33.9549 32.5435 33.7521 33.0331 33.391 33.3942C33.03 33.7552 32.5403 33.9581 32.0297 33.9581C31.5191 33.9581 31.0294 33.7552 30.6684 33.3942L20.5001 23.2227L10.3285 33.391C9.96748 33.752 9.4778 33.9549 8.9672 33.9549C8.4566 33.9549 7.96692 33.752 7.60587 33.391C7.24483 33.0299 7.04199 32.5403 7.04199 32.0297C7.04199 31.5191 7.24483 31.0294 7.60587 30.6683L17.7774 20.5L7.60908 10.3285C7.24803 9.96744 7.0452 9.47775 7.0452 8.96715C7.0452 8.45656 7.24803 7.96687 7.60908 7.60583C7.97012 7.24478 8.45981 7.04195 8.9704 7.04195C9.481 7.04195 9.97069 7.24478 10.3317 7.60583L20.5001 17.7774L30.6716 7.60422C31.0326 7.24318 31.5223 7.04034 32.0329 7.04034C32.5435 7.04034 33.0332 7.24318 33.3942 7.60422C33.7553 7.96527 33.9581 8.45496 33.9581 8.96555C33.9581 9.47615 33.7553 9.96583 33.3942 10.3269L23.2227 20.5L33.391 30.6715Z"
        fill="#00ADB5"
      />
    </svg>